<?xml version="1.0" encoding="utf-8"?>
<!-- Generator: Adobe Illustrator 28.0.0, SVG Export Plug-In . SVG Version: 6.00 Build 0)  -->
<svg version="1.1" xmlns="http://www.w3.org/2000/svg" xmlns:xlink="http://www.w3.org/1999/xlink" x="0px" y="0px"
	 viewBox="0 0 960 960" style="enable-background:new 0 0 960 960;" xml:space="preserve">
<style type="text/css">
	.st0{fill:#FF2927;}
	.st1{fill:#FFFFFF;}
	.st2{fill:#FFFF00;}
</style>
<g id="图层_2">
	<rect class="st0" width="960" height="960"/>
</g>
<g id="图层_1">
	<path class="st1" d="M672.36,840.56c3.95,3.16,5.93,7.13,5.93,11.88v10.93c0,4.43-1.99,8.32-5.95,11.64
		c-3.97,3.33-8.72,4.99-14.27,4.99h-53.51c-5.56,0-11.4-1.43-17.54-4.28c-6.15-2.85-10.61-6.34-13.38-10.45l-82.05-109.29
		c-3.18-4.43-6.94-6.65-11.3-6.65c-4.37,0-7.93,2.22-10.7,6.65l-82.65,109.29c-3.18,4.11-7.83,7.6-13.97,10.45
		c-6.15,2.85-11.99,4.28-17.54,4.28h-53.51c-5.56,0-10.31-1.66-14.27-4.99c-3.97-3.33-5.95-7.21-5.95-11.64v-10.93
		c0-4.75,1.98-8.72,5.95-11.88c3.96-3.17,8.71-4.75,14.27-4.75h13.68c5.95,0,11.89-1.43,17.84-4.28c5.95-2.85,10.5-6.18,13.68-9.98
		l94.54-119.27c3.17-3.8,5.84-8.71,8.03-14.73c2.17-6.01,3.27-11.24,3.27-15.68V459.95c0-4.43,2-8.23,6.01-11.4
		c4-3.16,8.82-4.75,14.43-4.75h13.82c5.6,0,10.51,1.59,14.72,4.75c4.21,3.17,6.32,6.97,6.32,11.4v212.88
		c0,4.44,1.09,9.67,3.26,15.68c2.17,6.02,4.84,10.93,8,14.73l93.02,118.32c3.16,3.8,7.9,7.13,14.21,9.98
		c6.32,2.85,12.24,4.28,17.78,4.28h13.63C663.67,835.81,668.4,837.39,672.36,840.56z M301.82,691.06l15.35,12.48
		c4.26,3.66,10.12,6.65,17.59,8.98c7.46,2.33,14.17,3.49,20.15,3.49h60.12c5.97,0,11.08-1.74,15.35-5.24
		c4.26-3.49,6.4-7.57,6.4-12.22v-10.98c0-4.98-2.14-9.14-6.4-12.47c-4.27-3.32-9.38-4.99-15.35-4.99H367.7
		c-6.4,0-11.73-1.73-15.99-5.18c-4.27-3.46-6.4-7.65-6.4-12.59V485.98c0-4.94-2.24-9.05-6.72-12.34c-4.48-3.29-9.7-4.94-15.67-4.94
		h-14.71c-6.4,0-11.73,1.65-15.99,4.94c-4.27,3.29-6.4,7.4-6.4,12.34v175.73c0,4.61,1.49,9.82,4.48,15.63
		C293.29,683.16,297.13,687.74,301.82,691.06z M668.26,473.64c-4.26-3.29-9.37-4.94-15.34-4.94h-14.7c-6.39,0-11.82,1.65-16.29,4.94
		c-4.47,3.29-6.71,7.4-6.71,12.34v166.35c0,4.94-2.14,9.13-6.39,12.59c-4.26,3.46-9.58,5.18-15.97,5.18h-47.28
		c-5.97,0-11.18,1.67-15.65,4.99c-4.47,3.33-6.71,7.49-6.71,12.47v10.98c0,4.66,2.24,8.73,6.71,12.22
		c4.47,3.49,9.68,5.24,15.65,5.24h60.06c5.96,0,12.67-1.16,20.13-3.49c7.45-2.33,13.52-5.32,18.21-8.98l15.33-12.48
		c4.25-3.32,7.88-7.9,10.86-13.71c2.98-5.82,4.47-11.02,4.47-15.63V485.98C674.65,481.05,672.52,476.94,668.26,473.64z
		 M469.05,362.21c-44.58,0-89.16,0.01-133.73,0.01v60.42h133.87c89.51,0,176.44-87.81,176.44-171.32
		C645.63,167.81,558.7,80,469.19,80H335.32v60.42c44.62,0,89.25,0,133.87,0c65.22,0.01,111.69,50.09,111.68,110.9
		C580.87,312.18,534.32,362.27,469.05,362.21z"/>
	<path id="点" class="st2" d="M505.24,283.41c13.4-7.22,21.66-20.56,21.66-35c0-22.32-19.39-40.41-43.31-40.41
		s-43.32,18.09-43.32,40.41c0,14.44,8.26,27.78,21.66,35C475.32,290.63,491.84,290.63,505.24,283.41z"/>
</g>
</svg>
